<svg xmlns="http://www.w3.org/2000/svg" width="250" height="300"><path d="M208.659 4.396c-.239.255-.485.523-.643.826-1.42 2.821-.469 5.145-1.064 8.241-.267 1.379-3.616 2.737-1.5 4.771.786.748 2.96 2.316 4.646 3.897 2.454 2.308 4.168 6.717 4.887 10.467 2.811 14.741 1.536 29.836-.193 44.729-.1.851-.216 1.733-.692 2.441-.857 1.269-2.78 4.557-4.218 5.088-7.888 2.917-5.105 2.271-11.812 4.598-5.981 2.075-20.63 1.931-25.132 6.385-4.506 4.451-7.347 10.999-5.997 17.187 1.008 4.634 4.504 12.568 8.77 10.502 11.168-5.411 23.087-7.564 31.466-13.172a203.908 203.908 0 0 0 22.584-17.524c.879-.784 1.773-1.606 2.271-2.673.533-1.139.56-2.437.576-3.692.205-16.161-1.017-32.247-2.573-48.39-.429-4.436-3.132-8.084-3.493-12.189-.227-2.622 1.478-4.841 1.809-7.362.327-2.49.125-5.849-.492-8.283-1.21-4.807-5.949-6.736-9.928-8.831-.991-.52-1.656-.875-2.702-.874-1.71.005-3.02 1.01-4.359 1.962a14.609 14.609 0 0 0-2.211 1.896zM53.279 7.87c.257.235.524.481.699.771 1.632 2.71.861 5.097 1.688 8.141.369 1.355 3.815 2.456 1.853 4.641-.723.806-2.778 2.534-4.334 4.236-2.272 2.488-3.65 7.014-4.08 10.808-1.692 14.909.718 29.868 3.568 44.586.162.841.344 1.714.876 2.383.953 1.2 7.264 4.227 8.789 4.337 7.079.517 11.166 2.42 18.028 4.233 6.123 1.617 10.615.245 15.44 4.342 4.828 4.101 8.157 10.417 7.281 16.686-.658 4.696-3.725 8.991-7.953 11.136-10.491 5.316-20.911-8.546-29.687-13.506-8.306-4.691-18.962-7.213-26.529-13.02-.935-.715-1.886-1.467-2.464-2.495-.615-1.093-.742-2.387-.853-3.637-1.425-16.097-1.421-32.229-1.09-48.444.09-4.456 2.516-8.298 2.56-12.421.029-2.627-1.836-4.712-2.358-7.201-.515-2.464-.563-5.826-.136-8.3.844-4.884 5.425-7.164 9.233-9.553.947-.594 1.585-1 2.631-1.077 1.7-.125 3.084.777 4.494 1.625.83.504 1.625 1.076 2.344 1.729z" fill="#e8c5b0"/><path d="M74.871 89.668c2.422-.927 6.897 1.408 9.427 1.976 5.609 1.26 3.859-.062 9.494.724 6.431.893 12.913 1.579 19.321 2.633 7.122 1.175 14.495 2.442 20.475 6.482 12.771 8.629 8.67 28.5-7.199 30.046-11.978 1.167-24.259-.698-35.57-4.703-6.94-2.455-12.99-6.176-19.062-9.93-4.108-2.538-10.326-2.934-12.629-7.281l15.743-19.947z" fill="#2d2d2d"/><path fill="#193251" d="M176.353 285.403l-2.501.923 11.178 10.396 9.979.301 3.23-3.882-10.376-6.382zM63.82 300.059l-4.24-5.08 10.112-6.525 10.032-18.383 6.846 15.849-12.457 13.687z"/><path d="M192.473 286.9s43.456-43.158 29.842-76.465c-2.581-6.317-18.96-12.122-18.96-12.122l-26.989-2.314-41.13-4.713-50.858 6.436-19.14-7.297s-34.915-9.301-37.508-1.747c-11.494 33.475 41.963 99.776 41.963 99.776l8.704-5.281s8.33-23.008-18.816-48.182c-13.096-12.143 69.483-4.66 69.483-4.66s49.728-8.717 59.37 5.686c13.117 19.597-14.582 50.31-14.582 50.31l18.621.573z" fill="#195566"/><path d="M175.651 153.885c-.018-.187-1.756-17.575-1.797-17.76-4.187-18.714 14.144-18.771-2.364-35.483-8.888-8.998-13.462-7.919-25.307-10.309-2.736-.553-8.367-2.203-8.047 1.266a53.833 53.833 0 0 0-11.199.891l-.129-1.307c-6.585 1.269-15.272 1.654-21.34 3.916-6.513 2.429-17.143 9.709-15.758 15.229 7.857 31.296 4.24 32.324 4.261 50.958.005 5.184-12.21 51.505-8.978 51.639 20.159.84 39.879-4.919 59.837-3.367 11.817.924 20.513 7.313 32.101 8.65.789.094 4.651-3.871 5.27-4.285.695-.459.807-1.276.878-2.004 1.214-13.546-5.772-12.628-4.858-26.317.745-11.207-1.389-20.5-2.57-31.717z" fill="#2d2d2d"/><path d="M147.752 32.839c2.479 4.347 3.674 9.355 3.896 14.357.059 1.328.149 2.863 1.224 3.647 1.151.841.141 2.683 1.016 1.562.875-1.124 2.241-5.297 2.374-6.715.314-3.324.476-6.624.156-9.947-.282-2.89.564-5.692-1.326-7.894-1.12-1.307-2.616-2.225-4.09-3.116-2.137-1.292-4.337-2.594-6.792-3.051-4.231-.787-6.824.729-3.092 3.68 2.674 2.113 4.934 4.5 6.634 7.477zM110.724 44.5c-.41 4.99.623 10.032 2.537 14.659.509 1.23 1.073 2.659.433 3.824-.688 1.247 1.005 2.491-.261 1.844-1.27-.648-4.27-3.853-4.991-5.082-1.688-2.881-3.23-5.804-4.343-8.949-.968-2.738-2.92-4.921-2.135-7.716.462-1.657-.204-6.837.755-8.269 1.392-2.074.822-4.479 2.854-5.93 3.502-2.5 10.139 1.788 8.004 6.04-1.532 3.045-2.572 6.163-2.853 9.579z" fill="#212940"/><path d="M121.234 89.56c0 1.744.036 3.391.284 4.774a116.468 116.468 0 0 1 12.107 10.833c2.404-3.225 4.877-6.598 5.646-10.546.326-1.678.475-18.066 1.207-18.655 6.575-5.291 4.71-4.013 8.013-8.516 2.031-2.77 3.887-6.633 4.16-8.393 1.139-7.304 1.271-10.886 1.325-18.242.021-2.542.024-5.166-.848-7.525-1.527-4.142-5.409-6.611-9.218-8.165-9.721-3.963-21.05-3.805-30.021 1.833-2.387 1.501-4.641 3.432-6.014 6.052-2.121 4.042-1.853 9.027-1.526 13.689.304 4.303.761 9.437 2.353 13.446 2.373 5.976 2.601 8.024 5.906 12.434 1.481 1.974 2.269 1.933 4.027 3.73 2.895 2.955 2.601 8.475 2.599 13.251z" fill="#e8c5b0"/><path d="M109.557 22.65c.178.501-7.153 9.028-6.079 11.612.541 1.305-1.204-.664 3.193.866 4.146-2.382 8.262-2.369 11.588-4.455 5.307-3.324 10.979-3.846 17.14-4.703 5.644-.787 8.095 2.274 13.672 3.77 2.675.719 10.523-1.514 8.633-4.041-.966-1.294-4.742-2.234-5.559-3.05l-4.353-2.665c-1.402-.482-6.96-4.117-7.928-4.196-9.053-.741-11.285-2.986-19.895 2.175.001.001-10.433 4.625-10.412 4.687z" fill="#242e44"/><path d="M144.04 57.969c0 6.282-5.982 11.372-13.359 11.372s-13.357-5.09-13.357-11.372h26.716z" fill="#fff"/><path d="M141.15 43.577c.456 0 2.916 1.057 3.37.73 2.606-1.883-5.059-2.699-6.612-2.797-1.646-.101-5.325 2.453-3.545 2.836 2.028.437 2.172-1.243 3.919-1.087l2.868.318zM121.25 43.577c.458 0 2.92 1.057 3.372.73 2.608-1.883-5.055-2.699-6.609-2.797-1.647-.101-5.328 2.453-3.546 2.836 2.028.437 2.171-1.243 3.919-1.087l2.864.318z" fill="#c5a293"/><path d="M199.15 88.199c-2.291-1.22-7.021.539-9.604.788-5.718.552-3.818-.542-9.507-.464-6.495.085-13.011-.039-19.501.208-7.211.28-14.682.621-21.121 3.886-13.745 6.972-12.15 27.2 3.406 30.709 11.737 2.647 24.155 2.325 35.877-.242 7.191-1.57 13.657-4.51 20.15-7.48 4.393-2.008 10.61-1.627 13.436-5.653L199.15 88.199z" fill="#2d2d2d"/><g fill="#c5e418"><path d="M118.24 127.289c-.917-2.003-1.956-4.083-1.956-6.455-.039-.475-.08-.954-.159-1.49v-3.725h2.062v1.853a5.653 5.653 0 0 1 1.828-1.539 4.63 4.63 0 0 1 2.164-.542c.964 0 1.744.267 2.346.798.599.533.898 1.271.898 2.214v1.846c0 .528-.002 1.127-.03 1.746-.623 2.251-1.143 5.369-3.915 6.062.867-2.424 1.732-4.85 1.882-7.375v-1.695c0-.687-.07-1.14-.209-1.36a1.373 1.373 0 0 0-.587-.506 1.844 1.844 0 0 0-.805-.179c-.513 0-1.061.137-1.65.411-.591.274-1.232.858-1.923 1.753 0 0 .074.662.148 1.5.374 2.602.721 5.2 1.553 7.543l-1.647-.86zM135.395 124.264c-.621.492-1.236.864-1.841 1.112a4.672 4.672 0 0 1-1.777.374c-.813 0-1.574-.231-2.274-.693s-1.05-1.137-1.05-2.025c0-.971.487-1.775 1.466-2.41.977-.636 2.541-.954 4.685-.954h.488v-1.199c0-.475-.072-.819-.224-1.037-.148-.217-.38-.386-.696-.507-.315-.122-.709-.183-1.175-.183-1.089 0-2.275.292-3.559.875v-1.486c1.406-.492 2.73-.739 3.976-.739.678 0 1.302.093 1.87.277.57.188 1.025.479 1.366.878.334.398.505 1.038.505 1.92v4.492c0 .499.054.845.165 1.063.962.745 2.344 1.438 1.825 2.476-.519.866-1.903-.346-2.781-.803-.488-.389-.812-.862-.969-1.431zm-.304-.976v-2.563l-.673-.017c-1.104 0-2.032.183-2.78.548-.747.363-1.121.859-1.121 1.485 0 .432.181.796.551 1.096a1.98 1.98 0 0 0 1.287.446c.441 0 .891-.083 1.348-.25.453-.169.92-.416 1.388-.745zM140.91 126.607c-.029-.976-.029-1.842-.029-2.882.343.303.951.587 1.398.752 2.063.634 4.317.981 6.565.981-.864-2.253-3.288-3.292-5.254-4.5a7.553 7.553 0 0 1-1.205-.544 3.629 3.629 0 0 1-.831-.626c-.423-.437-.637-.974-.637-1.614 0-.798.33-1.461.996-1.99.663-.531 1.646-.795 2.954-.795.635 0 1.422.078 2.359.228l.433.073v1.506c-1.162-.305-2.077-.457-2.769-.457-.666 0-1.161.124-1.492.374-.329.25-.494.544-.494.886 0 .267.115.508.334.721.22.218.608.436 1.181.648l1.034.423c2.006 1.336 4.604 3.933 3.91 5.839-.69 1.731-4.328 1.212-6.775 1.436-.685.012-1.175-.146-1.678-.459zM152.216 113.823v-1.797h2.064v1.797h-2.064zm-1.56 12.697c.043-.521.132-.981.239-1.403.105-.42.207-.838.305-1.26.389-1.678.685-3.389.869-5.055.015-.403.035-.827.146-1.635v-1.548h2.064v2.567c-.044 1.962-.75 3.771-1.612 5.502-.214.434-.428.913-.646 1.349-.219.438-.384.988-.5 1.603l-.865-.12z"/></g><path d="M100.739 144.068v-16.67h2.512v10.763l5.869-5.557h2.714l-5.611 5.346 1.753 1.587c.5.452 1.062.959 1.609 1.435.782.715 1.705 1.288 2.858 1.479-1.153.189-2.305.381-3.364.896 0 0-.03.067-.998-.805l-4.832-4.359v5.886h-2.51z" fill="#c5e418"/><path d="M118.7 142.514v-1.954a6.41 6.41 0 0 1-.782.934c-.422.246-.768.592-1.115.419-1.56-.52-4.156-.52-4.712-2.433 0 0-.007-.725-.007-1.833v-5.529s.623-.064 1.355-.173c.594.095.939-.251 1.459-.251-.347 1.212-.866 2.424-.855 3.791a28.69 28.69 0 0 0-.074 1.71v1.776c.063.344-.11.691.063 1.037.691.693 1.905 1.212 2.909.687.27-.144.552-.369.845-.675.291-.307.595-.695.914-1.163v-.5c.07-.624.111-1.231.167-1.92.361-2.319.709-4.57 1.401-6.649.864 2.771 0 5.716.314 8.517v4.208H118.7zM124.365 142.514v-3.912c-.015-.443-.026-.892-.049-1.35-.413-2.614-1.277-4.865-2.49-7.118 1.905.693 3.119 1.386 3.811 3.291.864-1.038 2.251-.866 3.229-1.416.352-.085.69-.131 1.032-.131.882 0 1.596.28 2.145.838.549.558.823 1.334.823 2.324v3.736c-.052.517-.248.701-.427.972-.566.953-1.434 1.472-2.301 1.992.348-.866.692-1.732.828-2.671.013-.558.013-1.129.013-1.638v-1.779c0-.722-.064-1.198-.191-1.427a1.33 1.33 0 0 0-.535-.532 1.533 1.533 0 0 0-.738-.187c-.464 0-.969.143-1.506.432-.641.528-1.332 1.047-1.76 1.838 0 0 .002.75.002 1.748v4.991h-1.886zM138.626 130.749c0-.441-.171-.96-.52-1.308.87.347 2.079.347 2.029 1.516l-1.509-.208zm-1.564 9.164c-.34-.251-.34-.598-.432-.876.024-.179.028-.293.082-.764.325-2.801.874-6.434 3.474-6.579-.578 1.731-1.074 3.541-1.408 5.371-.082.458-.157.914-.211 1.354-.111.896.578 1.589 1.097 2.282-.519 0-.862-.348-1.295-.419-.639-.209-1.307-.369-1.307-.369zM142.443 142.358c-.179-.619-.179-1.311-.301-1.926a39.183 39.183 0 0 1-.029-1.233c.151-2.656-1.059-5.082-.539-7.679.17-.174.69.52.865 1.039a12.47 12.47 0 0 1 1.267-.516c.417-.173.83-.402 1.238-.648.409-.247.815-.513 1.225-.761 2.331-1.365 5.274-.154 7.008 1.58.52.52.52 1.212.345 1.731-1.011 1.732-2.021 3.344-2.462 5.193-.088.37-.156.735-.2 1.037-.107 1.218-1.495 1.044-2.535 1.391.35-.173 0-.693.409-1.039.083-.312.198-.995.228-1.573-.287-2.064 2.657-3.45 1.791-5.182-.519-1.039-2.252-1.039-3.632-1.178-.555-.026-1.063.02-1.656.088-.413.082-.81.193-1.17.299-.423.148-.772.401-.991.791-.863 1.559.87 3.291.695 5.159.029.605.087 1.336.087 1.834v1.748l-1.643-.155zM156.688 144.156c-.223-.511-.567-.858-.737-1.377 1.041.692 2.075 2.426 3.483 2.101.42-.152.747-.382.981-.687.465-.609.703-1.429.703-2.466v-1.637c-.277.575-.71 1.083-1.296 1.524-.296.22-.624.386-.978.496-.36.11-.748.165-1.17.165-.661-.066-1.21-.292-1.72-.599-.423-.333-.82-.613-1.103-1.031-1.286-2.267-1.069-5.371.228-7.392.695-1.039 2.43-.347 3.64 0 .344-1.559 2.771-.865 4.155-1.039.176 1.212-.175 2.425.092 3.676.012.628.036 1.269.036 1.831v1.96c0 2.203-.185 3.707-.555 4.52a3.484 3.484 0 0 1-1.738 1.77 5.58 5.58 0 0 1-1.291.417c-.472.091-.438.001-.655-.108-.391-.381-.738-.555-1.007-.954-.202-.233-.536-.619-1.068-1.17zm4.42-5.252c-.485-2.88-3.083-7.21-5.684-5.131-1.034.692.175 3.463.871 5.37.521 1.385 2.077 1.731 3.302 1.043.523-.279 1.031-.708 1.511-1.282z" fill="#c5e418"/></svg>