<?xml version="1.0" standalone="no"?>
<!DOCTYPE svg PUBLIC "-//W3C//DTD SVG 20010904//EN"
 "http://www.w3.org/TR/2001/REC-SVG-20010904/DTD/svg10.dtd">
<svg version="1.0" xmlns="http://www.w3.org/2000/svg"
 width="600.000000pt" height="600.000000pt" viewBox="0 0 600.000000 600.000000"
 preserveAspectRatio="xMidYMid meet">
<metadata>
Created by potrace 1.11, written by Peter Selinger 2001-2013
</metadata>
<g transform="translate(0.000000,600.000000) scale(0.100000,-0.100000)"
fill="#000000" stroke="none">
<path d="M4754 5973 c-85 -48 -107 -83 -110 -173 -1 -36 -3 -68 -3 -71 -1 -3
-12 -18 -26 -33 -30 -32 -24 -49 32 -92 49 -37 79 -71 102 -114 25 -46 50
-121 56 -168 2 -20 7 -55 10 -77 20 -144 20 -402 1 -600 -4 -39 -9 -88 -11
-110 -8 -84 -15 -116 -32 -145 -9 -17 -21 -30 -25 -30 -4 0 -8 -5 -8 -11 0 -6
-6 -16 -12 -23 -14 -13 -103 -56 -116 -56 -5 0 -28 -9 -52 -21 -28 -14 -52
-19 -69 -14 -14 3 -37 6 -51 7 -24 1 -40 -1 -140 -20 -25 -4 -65 -5 -90 -1
-51 8 -557 4 -667 -5 -40 -4 -83 -10 -95 -15 -13 -4 -32 -6 -43 -3 -11 2 -41
6 -68 9 l-47 5 5 96 c10 175 9 170 41 194 62 49 104 97 150 173 43 72 65 121
69 158 8 72 17 113 31 134 31 49 44 135 43 278 -1 77 -5 150 -10 162 -6 17 -4
23 11 28 21 7 32 29 24 49 -3 7 -24 22 -47 32 -23 10 -69 35 -102 54 -124 75
-201 113 -235 117 -19 2 -59 8 -88 12 -29 5 -74 7 -100 6 -45 -2 -121 -23
-132 -36 -5 -6 -85 -44 -196 -93 -56 -25 -67 -35 -116 -109 -67 -101 -90 -160
-95 -251 -7 -115 -5 -135 16 -180 12 -23 21 -46 21 -50 0 -4 22 -51 49 -105
27 -53 63 -132 80 -176 40 -100 70 -147 131 -205 73 -69 83 -98 84 -254 l1
-89 -30 -3 c-16 -2 -46 -6 -65 -8 -19 -2 -66 -10 -105 -17 -38 -7 -73 -12 -77
-11 -4 1 -29 4 -55 7 -51 6 -109 13 -158 22 -16 2 -70 7 -120 9 -84 4 -137 10
-142 14 -2 2 -6 3 -10 4 -5 1 -32 10 -62 20 -35 12 -67 16 -95 13 -24 -4 -62
0 -87 7 -40 12 -80 20 -173 32 -33 5 -144 58 -168 82 -9 9 -19 31 -22 47 -3
17 -8 41 -11 55 -6 24 -27 144 -40 220 -21 127 -29 234 -29 405 -2 284 24 375
134 479 27 26 50 55 50 64 0 9 -11 27 -24 41 -17 18 -27 42 -30 76 -11 100
-20 117 -84 158 -31 20 -68 37 -82 37 -33 0 -142 -64 -191 -113 -70 -68 -83
-191 -34 -321 32 -84 33 -114 7 -193 -12 -34 -24 -82 -27 -105 -7 -45 -8 -607
-1 -743 13 -246 22 -321 44 -351 32 -42 140 -106 280 -166 196 -82 194 -82
171 -105 -18 -18 63 -75 160 -113 50 -19 91 -38 91 -42 0 -5 4 -8 9 -8 6 0 29
-13 53 -29 60 -40 274 -147 326 -162 23 -7 42 -17 43 -23 0 -6 2 -20 5 -31 18
-88 21 -233 10 -470 -9 -202 -16 -252 -62 -450 -3 -11 -7 -31 -10 -45 -3 -14
-10 -45 -15 -70 -6 -25 -13 -56 -15 -70 -3 -14 -10 -43 -15 -65 -5 -22 -12
-51 -14 -65 -3 -14 -8 -36 -12 -50 -3 -14 -7 -34 -7 -45 -1 -31 -49 -30 -135
3 -191 75 -297 115 -311 117 -8 2 -15 4 -15 5 0 1 -7 3 -15 5 -8 1 -62 13
-120 25 -58 12 -116 24 -130 26 -14 2 -41 7 -60 10 -56 10 -139 16 -215 17
-135 1 -176 -18 -189 -88 -3 -11 -9 -38 -14 -61 -9 -42 -8 -230 2 -274 4 -14
9 -41 12 -60 11 -65 47 -191 81 -280 44 -115 68 -170 140 -315 63 -126 106
-203 182 -328 36 -59 71 -116 76 -125 6 -10 42 -64 80 -121 39 -57 75 -111 80
-120 6 -9 12 -18 15 -21 3 -3 34 -45 70 -95 35 -49 67 -92 70 -95 12 -10 52
-71 49 -74 -2 -1 -48 -30 -101 -63 l-97 -60 32 -39 c56 -69 48 -66 159 -60
101 4 102 5 131 38 26 30 101 112 176 193 15 17 31 35 34 41 6 10 -89 241
-125 307 -7 12 -12 27 -13 32 -3 36 -20 109 -37 160 -24 70 -87 204 -105 223
-7 7 -13 19 -13 27 0 7 -3 15 -7 17 -5 2 -21 21 -37 43 -42 57 -62 80 -140
159 -87 91 -95 108 -56 136 34 24 42 26 170 44 91 12 610 14 780 2 36 -3 101
-7 145 -10 44 -3 114 -9 155 -12 108 -9 159 -9 210 -1 172 27 336 40 525 40
128 0 258 -8 295 -18 8 -2 28 -6 43 -9 108 -19 257 -101 257 -142 0 -8 5 -14
10 -14 6 0 10 -4 10 -9 0 -5 8 -26 17 -47 23 -54 24 -59 27 -149 4 -98 -14
-192 -60 -307 -36 -91 -110 -230 -125 -236 -5 -2 -7 -8 -3 -13 3 -5 -2 -12
-10 -15 -9 -3 -16 -11 -16 -16 0 -15 -84 -129 -128 -174 -16 -17 -12 -25 46
-77 25 -23 54 -50 64 -60 97 -93 91 -90 204 -94 57 -2 104 0 104 4 0 5 11 21
26 36 14 15 22 31 19 37 -3 5 -46 33 -95 62 -49 29 -90 56 -90 59 0 3 17 4 38
2 36 -3 42 0 93 55 30 32 70 77 89 101 19 24 40 48 47 55 23 26 170 234 209
296 118 192 212 418 240 580 9 56 11 240 3 286 -5 27 -11 59 -14 72 -2 12 -15
47 -28 76 -35 76 -143 154 -305 219 -70 29 -106 36 -207 42 -38 3 -88 7 -110
10 -60 7 -198 18 -217 17 -9 0 -19 10 -24 26 -4 15 -9 34 -11 42 -3 8 -6 94
-7 190 -3 160 -13 337 -22 351 -2 3 -6 30 -9 60 -4 30 -8 65 -10 79 -2 14 -7
54 -10 90 -3 36 -8 76 -10 90 -2 14 -6 59 -10 100 -4 41 -8 86 -10 100 -22
155 -23 203 -10 265 8 40 15 51 35 57 14 4 70 20 125 34 105 29 169 53 292
110 41 18 81 34 89 34 9 0 23 4 33 10 10 5 33 12 51 15 47 8 101 33 127 57 21
20 22 23 7 39 -19 21 -21 18 122 126 157 118 263 213 284 252 13 25 16 263 5
441 -2 47 -7 128 -10 180 -9 146 -12 182 -31 385 -3 33 -17 92 -30 130 -48
138 -50 157 -26 230 24 71 24 200 0 255 -20 47 -74 93 -158 135 -79 40 -93 42
-136 18z"/>
</g>
</svg>
